<svg width="25" height="24" viewBox="0 0 25 24" fill="none" xmlns="http://www.w3.org/2000/svg">
    <path
        d="M6.77046 5.18276L15.4715 10.0166C16.02 10.3214 16.1255 10.3896 16.1985 10.4608C16.3262 10.5853 16.4182 10.7417 16.4651 10.9138C16.4919 11.0121 16.5002 11.1375 16.5002 11.765V19.7773L13.9569 21.1903C13.4846 21.4527 13.2484 21.5839 13.0017 21.6478C12.6727 21.7331 12.3273 21.7331 11.9983 21.6478C11.7516 21.5839 11.5154 21.4527 11.0431 21.1903L5.04307 17.8569C4.54427 17.5798 4.29487 17.4413 4.1034 17.2545C3.84809 17.0054 3.66403 16.6926 3.5703 16.3485C3.5 16.0904 3.5 15.8051 3.5 15.2345V8.76489C3.5 8.19429 3.5 7.90898 3.5703 7.65088C3.66403 7.30675 3.84809 6.99394 4.1034 6.74488C4.29487 6.55808 4.54427 6.41953 5.04307 6.14242L6.77046 5.18276Z"
        fill="#21201F" />
    <path
        d="M8.82959 4.0388L11.0431 2.80909C11.5154 2.54668 11.7516 2.41548 11.9983 2.35154C12.3273 2.26628 12.6727 2.26628 13.0017 2.35154C13.2484 2.41548 13.4846 2.54668 13.9569 2.80908L19.9569 6.14242C20.4557 6.41953 20.7051 6.55808 20.8966 6.74488C21.1519 6.99394 21.336 7.30675 21.4297 7.65088C21.5 7.90898 21.5 8.19429 21.5 8.76489V15.2345C21.5 15.8051 21.5 16.0904 21.4297 16.3485C21.336 16.6926 21.1519 17.0054 20.8966 17.2545C20.7051 17.4413 20.4557 17.5798 19.9569 17.8569L18.5002 18.6662L18.5003 11.6663C18.5008 11.1938 18.5012 10.779 18.3948 10.3882C18.2542 9.87196 17.9781 9.40274 17.5951 9.02915C17.3052 8.74627 16.9423 8.5452 16.5291 8.31619L8.82959 4.0388Z"
        fill="#21201F" />
</svg>
    